<mxfile host="app.diagrams.net" modified="2022-05-05T20:22:17.465Z" agent="5.0 (Windows NT 10.0; Win64; x64) AppleWebKit/537.36 (KHTML, like Gecko) Chrome/101.0.4951.54 Safari/537.36" etag="WURi9fk82k92WPwBk3ML" version="18.0.1" type="github">
  <diagram id="i_IfiFHiijoleGU8zG9g" name="Page-1">
    <mxGraphModel dx="1247" dy="1909" grid="1" gridSize="10" guides="1" tooltips="1" connect="1" arrows="1" fold="1" page="1" pageScale="1" pageWidth="827" pageHeight="1169" math="0" shadow="0">
      <root>
        <mxCell id="0" />
        <mxCell id="1" parent="0" />
        <mxCell id="mf0dby7lymCjqVx_rv8k-48" style="edgeStyle=none;rounded=0;orthogonalLoop=1;jettySize=auto;html=1;exitX=0.5;exitY=1;exitDx=0;exitDy=0;entryX=0.5;entryY=0;entryDx=0;entryDy=0;" edge="1" parent="1" source="mf0dby7lymCjqVx_rv8k-1" target="mf0dby7lymCjqVx_rv8k-4">
          <mxGeometry relative="1" as="geometry" />
        </mxCell>
        <mxCell id="mf0dby7lymCjqVx_rv8k-1" value="" style="ellipse;whiteSpace=wrap;html=1;" vertex="1" parent="1">
          <mxGeometry x="40" y="20" width="120" height="80" as="geometry" />
        </mxCell>
        <mxCell id="mf0dby7lymCjqVx_rv8k-2" value="INÍCIO" style="text;html=1;strokeColor=none;fillColor=none;align=center;verticalAlign=middle;whiteSpace=wrap;rounded=0;" vertex="1" parent="1">
          <mxGeometry x="70" y="45" width="60" height="30" as="geometry" />
        </mxCell>
        <mxCell id="mf0dby7lymCjqVx_rv8k-49" style="edgeStyle=none;rounded=0;orthogonalLoop=1;jettySize=auto;html=1;exitX=0.5;exitY=1;exitDx=0;exitDy=0;entryX=0.5;entryY=0;entryDx=0;entryDy=0;" edge="1" parent="1" source="mf0dby7lymCjqVx_rv8k-4" target="mf0dby7lymCjqVx_rv8k-6">
          <mxGeometry relative="1" as="geometry" />
        </mxCell>
        <mxCell id="mf0dby7lymCjqVx_rv8k-4" value="" style="rounded=0;whiteSpace=wrap;html=1;" vertex="1" parent="1">
          <mxGeometry x="40" y="140" width="120" height="60" as="geometry" />
        </mxCell>
        <mxCell id="mf0dby7lymCjqVx_rv8k-5" value="TRANFIRA O DISCO 1 PARA A HASTE C" style="text;html=1;strokeColor=none;fillColor=none;align=center;verticalAlign=middle;whiteSpace=wrap;rounded=0;" vertex="1" parent="1">
          <mxGeometry x="50" y="155" width="100" height="30" as="geometry" />
        </mxCell>
        <mxCell id="mf0dby7lymCjqVx_rv8k-51" style="edgeStyle=none;rounded=0;orthogonalLoop=1;jettySize=auto;html=1;exitX=0.5;exitY=1;exitDx=0;exitDy=0;entryX=0.5;entryY=0;entryDx=0;entryDy=0;" edge="1" parent="1" source="mf0dby7lymCjqVx_rv8k-6" target="mf0dby7lymCjqVx_rv8k-10">
          <mxGeometry relative="1" as="geometry" />
        </mxCell>
        <mxCell id="mf0dby7lymCjqVx_rv8k-6" value="" style="rounded=0;whiteSpace=wrap;html=1;" vertex="1" parent="1">
          <mxGeometry x="40" y="250" width="120" height="60" as="geometry" />
        </mxCell>
        <mxCell id="mf0dby7lymCjqVx_rv8k-7" value="TRANFIRA O DISCO 2 PARA A HASTE B" style="text;html=1;strokeColor=none;fillColor=none;align=center;verticalAlign=middle;whiteSpace=wrap;rounded=0;" vertex="1" parent="1">
          <mxGeometry x="50" y="265" width="100" height="30" as="geometry" />
        </mxCell>
        <mxCell id="mf0dby7lymCjqVx_rv8k-53" style="edgeStyle=none;rounded=0;orthogonalLoop=1;jettySize=auto;html=1;exitX=1;exitY=0.5;exitDx=0;exitDy=0;entryX=0;entryY=0.5;entryDx=0;entryDy=0;" edge="1" parent="1" source="mf0dby7lymCjqVx_rv8k-8" target="mf0dby7lymCjqVx_rv8k-12">
          <mxGeometry relative="1" as="geometry" />
        </mxCell>
        <mxCell id="mf0dby7lymCjqVx_rv8k-8" value="" style="rounded=0;whiteSpace=wrap;html=1;" vertex="1" parent="1">
          <mxGeometry x="40" y="470" width="120" height="60" as="geometry" />
        </mxCell>
        <mxCell id="mf0dby7lymCjqVx_rv8k-9" value="TRANFIRA O DISCO 3 PARA A HASTE C" style="text;html=1;strokeColor=none;fillColor=none;align=center;verticalAlign=middle;whiteSpace=wrap;rounded=0;" vertex="1" parent="1">
          <mxGeometry x="50" y="485" width="100" height="30" as="geometry" />
        </mxCell>
        <mxCell id="mf0dby7lymCjqVx_rv8k-52" style="edgeStyle=none;rounded=0;orthogonalLoop=1;jettySize=auto;html=1;exitX=0.5;exitY=1;exitDx=0;exitDy=0;entryX=0.5;entryY=0;entryDx=0;entryDy=0;" edge="1" parent="1" source="mf0dby7lymCjqVx_rv8k-10" target="mf0dby7lymCjqVx_rv8k-8">
          <mxGeometry relative="1" as="geometry" />
        </mxCell>
        <mxCell id="mf0dby7lymCjqVx_rv8k-10" value="" style="rounded=0;whiteSpace=wrap;html=1;" vertex="1" parent="1">
          <mxGeometry x="40" y="360" width="120" height="60" as="geometry" />
        </mxCell>
        <mxCell id="mf0dby7lymCjqVx_rv8k-11" value="TRANFIRA O DISCO 1 PARA A HASTE B" style="text;html=1;strokeColor=none;fillColor=none;align=center;verticalAlign=middle;whiteSpace=wrap;rounded=0;" vertex="1" parent="1">
          <mxGeometry x="50" y="375" width="100" height="30" as="geometry" />
        </mxCell>
        <mxCell id="mf0dby7lymCjqVx_rv8k-54" style="edgeStyle=none;rounded=0;orthogonalLoop=1;jettySize=auto;html=1;exitX=0.5;exitY=0;exitDx=0;exitDy=0;entryX=0.5;entryY=1;entryDx=0;entryDy=0;" edge="1" parent="1" source="mf0dby7lymCjqVx_rv8k-12" target="mf0dby7lymCjqVx_rv8k-14">
          <mxGeometry relative="1" as="geometry" />
        </mxCell>
        <mxCell id="mf0dby7lymCjqVx_rv8k-12" value="" style="rounded=0;whiteSpace=wrap;html=1;" vertex="1" parent="1">
          <mxGeometry x="210" y="470" width="120" height="60" as="geometry" />
        </mxCell>
        <mxCell id="mf0dby7lymCjqVx_rv8k-13" value="TRANFIRA O DISCO 1 PARA A HASTE A" style="text;html=1;strokeColor=none;fillColor=none;align=center;verticalAlign=middle;whiteSpace=wrap;rounded=0;" vertex="1" parent="1">
          <mxGeometry x="220" y="485" width="100" height="30" as="geometry" />
        </mxCell>
        <mxCell id="mf0dby7lymCjqVx_rv8k-55" style="edgeStyle=none;rounded=0;orthogonalLoop=1;jettySize=auto;html=1;exitX=0.5;exitY=0;exitDx=0;exitDy=0;entryX=0.5;entryY=1;entryDx=0;entryDy=0;" edge="1" parent="1" source="mf0dby7lymCjqVx_rv8k-14" target="mf0dby7lymCjqVx_rv8k-18">
          <mxGeometry relative="1" as="geometry" />
        </mxCell>
        <mxCell id="mf0dby7lymCjqVx_rv8k-14" value="" style="rounded=0;whiteSpace=wrap;html=1;" vertex="1" parent="1">
          <mxGeometry x="210" y="360" width="120" height="60" as="geometry" />
        </mxCell>
        <mxCell id="mf0dby7lymCjqVx_rv8k-15" value="TRANFIRA O DISCO 2 PARA A HASTE C" style="text;html=1;strokeColor=none;fillColor=none;align=center;verticalAlign=middle;whiteSpace=wrap;rounded=0;" vertex="1" parent="1">
          <mxGeometry x="220" y="375" width="100" height="30" as="geometry" />
        </mxCell>
        <mxCell id="mf0dby7lymCjqVx_rv8k-57" style="edgeStyle=none;rounded=0;orthogonalLoop=1;jettySize=auto;html=1;exitX=1;exitY=0.5;exitDx=0;exitDy=0;entryX=0;entryY=0.5;entryDx=0;entryDy=0;" edge="1" parent="1" source="mf0dby7lymCjqVx_rv8k-16" target="mf0dby7lymCjqVx_rv8k-22">
          <mxGeometry relative="1" as="geometry" />
        </mxCell>
        <mxCell id="mf0dby7lymCjqVx_rv8k-16" value="" style="rounded=0;whiteSpace=wrap;html=1;" vertex="1" parent="1">
          <mxGeometry x="210" y="140" width="120" height="60" as="geometry" />
        </mxCell>
        <mxCell id="mf0dby7lymCjqVx_rv8k-17" value="TRANFIRA O DISCO 1 PARA A HASTE C" style="text;html=1;strokeColor=none;fillColor=none;align=center;verticalAlign=middle;whiteSpace=wrap;rounded=0;" vertex="1" parent="1">
          <mxGeometry x="220" y="155" width="100" height="30" as="geometry" />
        </mxCell>
        <mxCell id="mf0dby7lymCjqVx_rv8k-56" style="edgeStyle=none;rounded=0;orthogonalLoop=1;jettySize=auto;html=1;exitX=0.5;exitY=0;exitDx=0;exitDy=0;entryX=0.5;entryY=1;entryDx=0;entryDy=0;" edge="1" parent="1" source="mf0dby7lymCjqVx_rv8k-18" target="mf0dby7lymCjqVx_rv8k-16">
          <mxGeometry relative="1" as="geometry" />
        </mxCell>
        <mxCell id="mf0dby7lymCjqVx_rv8k-18" value="" style="rounded=0;whiteSpace=wrap;html=1;" vertex="1" parent="1">
          <mxGeometry x="210" y="250" width="120" height="60" as="geometry" />
        </mxCell>
        <mxCell id="mf0dby7lymCjqVx_rv8k-19" value="TRANFIRA O DISCO 1 PARA A HASTE C" style="text;html=1;strokeColor=none;fillColor=none;align=center;verticalAlign=middle;whiteSpace=wrap;rounded=0;" vertex="1" parent="1">
          <mxGeometry x="220" y="265" width="100" height="30" as="geometry" />
        </mxCell>
        <mxCell id="mf0dby7lymCjqVx_rv8k-58" style="edgeStyle=none;rounded=0;orthogonalLoop=1;jettySize=auto;html=1;exitX=0.5;exitY=1;exitDx=0;exitDy=0;entryX=0.5;entryY=0;entryDx=0;entryDy=0;" edge="1" parent="1" source="mf0dby7lymCjqVx_rv8k-22" target="mf0dby7lymCjqVx_rv8k-24">
          <mxGeometry relative="1" as="geometry" />
        </mxCell>
        <mxCell id="mf0dby7lymCjqVx_rv8k-22" value="" style="rounded=0;whiteSpace=wrap;html=1;" vertex="1" parent="1">
          <mxGeometry x="380" y="140" width="120" height="60" as="geometry" />
        </mxCell>
        <mxCell id="mf0dby7lymCjqVx_rv8k-23" value="TRANFIRA O DISCO 1 PARA A HASTE A" style="text;html=1;strokeColor=none;fillColor=none;align=center;verticalAlign=middle;whiteSpace=wrap;rounded=0;" vertex="1" parent="1">
          <mxGeometry x="390" y="155" width="100" height="30" as="geometry" />
        </mxCell>
        <mxCell id="mf0dby7lymCjqVx_rv8k-59" style="edgeStyle=none;rounded=0;orthogonalLoop=1;jettySize=auto;html=1;exitX=0.5;exitY=1;exitDx=0;exitDy=0;entryX=0.5;entryY=0;entryDx=0;entryDy=0;" edge="1" parent="1" source="mf0dby7lymCjqVx_rv8k-24" target="mf0dby7lymCjqVx_rv8k-26">
          <mxGeometry relative="1" as="geometry" />
        </mxCell>
        <mxCell id="mf0dby7lymCjqVx_rv8k-24" value="" style="rounded=0;whiteSpace=wrap;html=1;" vertex="1" parent="1">
          <mxGeometry x="380" y="250" width="120" height="60" as="geometry" />
        </mxCell>
        <mxCell id="mf0dby7lymCjqVx_rv8k-25" value="TRANFIRA O DISCO 2 PARA A HASTE B" style="text;html=1;strokeColor=none;fillColor=none;align=center;verticalAlign=middle;whiteSpace=wrap;rounded=0;" vertex="1" parent="1">
          <mxGeometry x="390" y="265" width="100" height="30" as="geometry" />
        </mxCell>
        <mxCell id="mf0dby7lymCjqVx_rv8k-60" style="edgeStyle=none;rounded=0;orthogonalLoop=1;jettySize=auto;html=1;exitX=0.5;exitY=1;exitDx=0;exitDy=0;entryX=0.5;entryY=0;entryDx=0;entryDy=0;" edge="1" parent="1" source="mf0dby7lymCjqVx_rv8k-26" target="mf0dby7lymCjqVx_rv8k-28">
          <mxGeometry relative="1" as="geometry" />
        </mxCell>
        <mxCell id="mf0dby7lymCjqVx_rv8k-26" value="" style="rounded=0;whiteSpace=wrap;html=1;" vertex="1" parent="1">
          <mxGeometry x="380" y="360" width="120" height="60" as="geometry" />
        </mxCell>
        <mxCell id="mf0dby7lymCjqVx_rv8k-27" value="TRANFIRA O DISCO 1 PARA A HASTE B" style="text;html=1;strokeColor=none;fillColor=none;align=center;verticalAlign=middle;whiteSpace=wrap;rounded=0;" vertex="1" parent="1">
          <mxGeometry x="390" y="375" width="100" height="30" as="geometry" />
        </mxCell>
        <mxCell id="mf0dby7lymCjqVx_rv8k-61" style="edgeStyle=none;rounded=0;orthogonalLoop=1;jettySize=auto;html=1;exitX=1;exitY=0.5;exitDx=0;exitDy=0;entryX=0;entryY=0.5;entryDx=0;entryDy=0;" edge="1" parent="1" source="mf0dby7lymCjqVx_rv8k-28" target="mf0dby7lymCjqVx_rv8k-30">
          <mxGeometry relative="1" as="geometry" />
        </mxCell>
        <mxCell id="mf0dby7lymCjqVx_rv8k-28" value="" style="rounded=0;whiteSpace=wrap;html=1;" vertex="1" parent="1">
          <mxGeometry x="380" y="470" width="120" height="60" as="geometry" />
        </mxCell>
        <mxCell id="mf0dby7lymCjqVx_rv8k-29" value="TRANFIRA O DISCO 3 PARA A HASTE A" style="text;html=1;strokeColor=none;fillColor=none;align=center;verticalAlign=middle;whiteSpace=wrap;rounded=0;" vertex="1" parent="1">
          <mxGeometry x="390" y="485" width="100" height="30" as="geometry" />
        </mxCell>
        <mxCell id="mf0dby7lymCjqVx_rv8k-62" style="edgeStyle=none;rounded=0;orthogonalLoop=1;jettySize=auto;html=1;exitX=0.5;exitY=0;exitDx=0;exitDy=0;entryX=0.5;entryY=1;entryDx=0;entryDy=0;" edge="1" parent="1" source="mf0dby7lymCjqVx_rv8k-30" target="mf0dby7lymCjqVx_rv8k-32">
          <mxGeometry relative="1" as="geometry" />
        </mxCell>
        <mxCell id="mf0dby7lymCjqVx_rv8k-30" value="" style="rounded=0;whiteSpace=wrap;html=1;" vertex="1" parent="1">
          <mxGeometry x="550" y="470" width="120" height="60" as="geometry" />
        </mxCell>
        <mxCell id="mf0dby7lymCjqVx_rv8k-31" value="TRANFIRA O DISCO 1 PARA A HASTE C" style="text;html=1;strokeColor=none;fillColor=none;align=center;verticalAlign=middle;whiteSpace=wrap;rounded=0;" vertex="1" parent="1">
          <mxGeometry x="560" y="485" width="100" height="30" as="geometry" />
        </mxCell>
        <mxCell id="mf0dby7lymCjqVx_rv8k-63" style="edgeStyle=none;rounded=0;orthogonalLoop=1;jettySize=auto;html=1;exitX=0.5;exitY=0;exitDx=0;exitDy=0;entryX=0.5;entryY=1;entryDx=0;entryDy=0;" edge="1" parent="1" source="mf0dby7lymCjqVx_rv8k-32" target="mf0dby7lymCjqVx_rv8k-34">
          <mxGeometry relative="1" as="geometry" />
        </mxCell>
        <mxCell id="mf0dby7lymCjqVx_rv8k-32" value="" style="rounded=0;whiteSpace=wrap;html=1;" vertex="1" parent="1">
          <mxGeometry x="550" y="360" width="120" height="60" as="geometry" />
        </mxCell>
        <mxCell id="mf0dby7lymCjqVx_rv8k-33" value="TRANFIRA O DISCO 2 PARA A HASTE C" style="text;html=1;strokeColor=none;fillColor=none;align=center;verticalAlign=middle;whiteSpace=wrap;rounded=0;" vertex="1" parent="1">
          <mxGeometry x="560" y="375" width="100" height="30" as="geometry" />
        </mxCell>
        <mxCell id="mf0dby7lymCjqVx_rv8k-64" style="edgeStyle=none;rounded=0;orthogonalLoop=1;jettySize=auto;html=1;exitX=0.5;exitY=0;exitDx=0;exitDy=0;entryX=0.5;entryY=1;entryDx=0;entryDy=0;" edge="1" parent="1" source="mf0dby7lymCjqVx_rv8k-34" target="mf0dby7lymCjqVx_rv8k-36">
          <mxGeometry relative="1" as="geometry">
            <mxPoint x="610" y="210" as="targetPoint" />
          </mxGeometry>
        </mxCell>
        <mxCell id="mf0dby7lymCjqVx_rv8k-34" value="" style="rounded=0;whiteSpace=wrap;html=1;" vertex="1" parent="1">
          <mxGeometry x="550" y="250" width="120" height="60" as="geometry" />
        </mxCell>
        <mxCell id="mf0dby7lymCjqVx_rv8k-35" value="TRANFIRA O DISCO 1 PARA A HASTE C" style="text;html=1;strokeColor=none;fillColor=none;align=center;verticalAlign=middle;whiteSpace=wrap;rounded=0;" vertex="1" parent="1">
          <mxGeometry x="560" y="265" width="100" height="30" as="geometry" />
        </mxCell>
        <mxCell id="mf0dby7lymCjqVx_rv8k-65" style="edgeStyle=none;rounded=0;orthogonalLoop=1;jettySize=auto;html=1;exitX=1;exitY=0.5;exitDx=0;exitDy=0;entryX=0;entryY=0.5;entryDx=0;entryDy=0;" edge="1" parent="1" source="mf0dby7lymCjqVx_rv8k-36" target="mf0dby7lymCjqVx_rv8k-38">
          <mxGeometry relative="1" as="geometry" />
        </mxCell>
        <mxCell id="mf0dby7lymCjqVx_rv8k-36" value="" style="rounded=0;whiteSpace=wrap;html=1;" vertex="1" parent="1">
          <mxGeometry x="550" y="140" width="120" height="60" as="geometry" />
        </mxCell>
        <mxCell id="mf0dby7lymCjqVx_rv8k-37" value="TRANFIRA O DISCO 3 PARA A HASTE B" style="text;html=1;strokeColor=none;fillColor=none;align=center;verticalAlign=middle;whiteSpace=wrap;rounded=0;" vertex="1" parent="1">
          <mxGeometry x="560" y="155" width="100" height="30" as="geometry" />
        </mxCell>
        <mxCell id="mf0dby7lymCjqVx_rv8k-66" style="edgeStyle=none;rounded=0;orthogonalLoop=1;jettySize=auto;html=1;exitX=0.5;exitY=1;exitDx=0;exitDy=0;entryX=0.5;entryY=0;entryDx=0;entryDy=0;" edge="1" parent="1" source="mf0dby7lymCjqVx_rv8k-38" target="mf0dby7lymCjqVx_rv8k-40">
          <mxGeometry relative="1" as="geometry" />
        </mxCell>
        <mxCell id="mf0dby7lymCjqVx_rv8k-38" value="" style="rounded=0;whiteSpace=wrap;html=1;" vertex="1" parent="1">
          <mxGeometry x="719" y="140" width="120" height="60" as="geometry" />
        </mxCell>
        <mxCell id="mf0dby7lymCjqVx_rv8k-39" value="TRANFIRA O DISCO 3 PARA A HASTE B" style="text;html=1;strokeColor=none;fillColor=none;align=center;verticalAlign=middle;whiteSpace=wrap;rounded=0;" vertex="1" parent="1">
          <mxGeometry x="729" y="155" width="100" height="30" as="geometry" />
        </mxCell>
        <mxCell id="mf0dby7lymCjqVx_rv8k-67" style="edgeStyle=none;rounded=0;orthogonalLoop=1;jettySize=auto;html=1;exitX=0.5;exitY=1;exitDx=0;exitDy=0;entryX=0.5;entryY=0;entryDx=0;entryDy=0;" edge="1" parent="1" source="mf0dby7lymCjqVx_rv8k-40" target="mf0dby7lymCjqVx_rv8k-42">
          <mxGeometry relative="1" as="geometry" />
        </mxCell>
        <mxCell id="mf0dby7lymCjqVx_rv8k-40" value="" style="rounded=0;whiteSpace=wrap;html=1;" vertex="1" parent="1">
          <mxGeometry x="720" y="250" width="120" height="60" as="geometry" />
        </mxCell>
        <mxCell id="mf0dby7lymCjqVx_rv8k-41" value="TRANFIRA O DISCO 1 PARA A HASTE A" style="text;html=1;strokeColor=none;fillColor=none;align=center;verticalAlign=middle;whiteSpace=wrap;rounded=0;" vertex="1" parent="1">
          <mxGeometry x="730" y="265" width="100" height="30" as="geometry" />
        </mxCell>
        <mxCell id="mf0dby7lymCjqVx_rv8k-68" style="edgeStyle=none;rounded=0;orthogonalLoop=1;jettySize=auto;html=1;exitX=0.5;exitY=1;exitDx=0;exitDy=0;entryX=0.5;entryY=0;entryDx=0;entryDy=0;" edge="1" parent="1" source="mf0dby7lymCjqVx_rv8k-42" target="mf0dby7lymCjqVx_rv8k-44">
          <mxGeometry relative="1" as="geometry" />
        </mxCell>
        <mxCell id="mf0dby7lymCjqVx_rv8k-42" value="" style="rounded=0;whiteSpace=wrap;html=1;" vertex="1" parent="1">
          <mxGeometry x="721" y="360" width="120" height="60" as="geometry" />
        </mxCell>
        <mxCell id="mf0dby7lymCjqVx_rv8k-43" value="TRANFIRA O DISCO 2 PARA A HASTE B" style="text;html=1;strokeColor=none;fillColor=none;align=center;verticalAlign=middle;whiteSpace=wrap;rounded=0;" vertex="1" parent="1">
          <mxGeometry x="731" y="375" width="100" height="30" as="geometry" />
        </mxCell>
        <mxCell id="mf0dby7lymCjqVx_rv8k-69" style="edgeStyle=none;rounded=0;orthogonalLoop=1;jettySize=auto;html=1;exitX=0.5;exitY=1;exitDx=0;exitDy=0;entryX=0.5;entryY=0;entryDx=0;entryDy=0;" edge="1" parent="1" source="mf0dby7lymCjqVx_rv8k-44" target="mf0dby7lymCjqVx_rv8k-46">
          <mxGeometry relative="1" as="geometry" />
        </mxCell>
        <mxCell id="mf0dby7lymCjqVx_rv8k-44" value="" style="rounded=0;whiteSpace=wrap;html=1;" vertex="1" parent="1">
          <mxGeometry x="721" y="470" width="120" height="60" as="geometry" />
        </mxCell>
        <mxCell id="mf0dby7lymCjqVx_rv8k-45" value="TRANFIRA O DISCO 1 PARA A HASTE B" style="text;html=1;strokeColor=none;fillColor=none;align=center;verticalAlign=middle;whiteSpace=wrap;rounded=0;" vertex="1" parent="1">
          <mxGeometry x="731" y="485" width="100" height="30" as="geometry" />
        </mxCell>
        <mxCell id="mf0dby7lymCjqVx_rv8k-46" value="" style="ellipse;whiteSpace=wrap;html=1;" vertex="1" parent="1">
          <mxGeometry x="721" y="585" width="120" height="80" as="geometry" />
        </mxCell>
        <mxCell id="mf0dby7lymCjqVx_rv8k-47" value="INÍCIO" style="text;html=1;strokeColor=none;fillColor=none;align=center;verticalAlign=middle;whiteSpace=wrap;rounded=0;" vertex="1" parent="1">
          <mxGeometry x="751" y="610" width="60" height="30" as="geometry" />
        </mxCell>
        <mxCell id="mf0dby7lymCjqVx_rv8k-70" value="&lt;h1 style=&quot;&quot;&gt;FLUXOGRAMA DE RESOLUÇÃO&lt;/h1&gt;&lt;h1 style=&quot;&quot;&gt;DA&lt;/h1&gt;&lt;h1 style=&quot;&quot;&gt;TORRE DE HANÓI&lt;/h1&gt;" style="text;html=1;strokeColor=none;fillColor=none;spacing=5;spacingTop=-20;whiteSpace=wrap;overflow=hidden;rounded=0;align=center;" vertex="1" parent="1">
          <mxGeometry x="270" y="-120" width="410" height="120" as="geometry" />
        </mxCell>
      </root>
    </mxGraphModel>
  </diagram>
</mxfile>
